# Blender 3.3.15
# www.blender.org
o Icosphere
v -0.000002 -1.000000 -0.991248
v 0.587784 -0.809017 -0.991248
v -0.951060 -0.309013 -0.991248
v -0.587788 -0.809017 -0.991248
v -0.587788 0.809017 -0.991248
v -0.951060 0.309013 -0.991248
v 0.587784 0.809017 -0.991248
v -0.000002 1.000000 -0.991248
v 0.951056 -0.309013 -0.991248
v 0.951056 0.309013 -0.991248
v -0.000002 0.000000 -1.991248
v 0.894424 0.000000 -1.438463
v 0.276386 -0.850649 -1.438467
v -0.723609 -0.525725 -1.438467
v -0.723609 0.525725 -1.438467
v 0.276386 0.850649 -1.438467
v 0.951058 0.309013 0.000000
v 0.951058 -0.309013 0.000000
v 0.000000 1.000000 0.000000
v 0.587786 0.809017 0.000000
v -0.951058 0.309013 0.000000
v -0.587786 0.809017 0.000000
v -0.587786 -0.809017 0.000000
v -0.951058 -0.309013 0.000000
v 0.587786 -0.809017 0.000000
v 0.000000 -1.000000 0.000000
v 0.000002 0.000000 1.988590
v 0.723609 0.525725 1.435809
v -0.276386 0.850649 1.435810
v -0.894424 0.000000 1.435806
v -0.276386 -0.850649 1.435810
v 0.723609 -0.525725 1.435809
v -0.162453 0.499995 1.839244
v 0.425325 0.309011 1.839244
v 0.262871 0.809012 1.514328
v 0.850650 0.000000 1.514326
v 0.425325 -0.309011 1.839244
v -0.525728 0.000000 1.839242
v -0.688187 0.499997 1.514326
v -0.162453 -0.499995 1.839244
v -0.688187 -0.499997 1.514326
v 0.262871 -0.809012 1.514328
v 0.951060 0.309013 0.988590
v 0.951060 -0.309013 0.988590
v 0.000002 1.000000 0.988590
v 0.587788 0.809017 0.988590
v -0.951056 0.309013 0.988590
v -0.587784 0.809017 0.988590
v -0.587784 -0.809017 0.988590
v -0.951056 -0.309013 0.988590
v 0.587788 -0.809017 0.988590
v 0.000002 -1.000000 0.988590
v 0.688187 0.499997 -1.516984
v -0.262871 0.809012 -1.516985
v -0.850650 0.000000 -1.516984
v -0.262871 -0.809012 -1.516985
v 0.688187 -0.499997 -1.516984
v 0.162453 0.499995 -1.841902
v 0.525728 0.000000 -1.841899
v -0.425325 0.309011 -1.841902
v -0.425325 -0.309011 -1.841902
v 0.162453 -0.499995 -1.841902
vn -0.5346 0.7779 -0.3304
vn -0.9050 0.2680 -0.3304
vn -0.9822 -0.0000 -0.1876
vn -0.9050 -0.2680 -0.3304
vn -0.5346 -0.7779 -0.3304
vn -0.3035 -0.9342 -0.1876
vn -0.0247 -0.9435 -0.3304
vn 0.5746 -0.7488 -0.3304
vn 0.7947 -0.5773 -0.1876
vn 0.8897 -0.3151 -0.3304
vn 0.7240 0.1947 -0.6617
vn 0.4911 0.3568 -0.7947
vn 0.2680 0.1947 -0.9435
vn 0.0385 0.7488 -0.6617
vn -0.1876 0.5773 -0.7947
vn 0.3090 -0.9511 -0.0000
vn 0.8090 -0.5878 -0.0000
vn -0.8090 -0.5878 -0.0000
vn -0.8090 0.5878 -0.0000
vn -0.3090 -0.9511 -0.0000
vn 0.3090 0.9511 -0.0000
vn -0.1024 0.3151 -0.9435
vn -0.7002 0.2680 -0.6617
vn -1.0000 -0.0000 -0.0000
vn -0.6071 -0.0000 -0.7947
vn -0.3313 -0.0000 -0.9435
vn -0.3090 0.9511 -0.0000
vn -0.4713 -0.5831 -0.6617
vn -0.1876 -0.5773 -0.7947
vn 1.0000 -0.0000 -0.0000
vn -0.1024 -0.3151 -0.9435
vn 0.4089 -0.6284 -0.6617
vn 0.8090 0.5878 -0.0000
vn 0.4911 -0.3568 -0.7947
vn 0.2680 -0.1947 -0.9435
vn 0.7240 -0.1947 -0.6617
vn 0.0385 -0.7488 -0.6617
vn -0.7002 -0.2680 -0.6617
vn -0.4713 0.5831 -0.6617
vn 0.4089 0.6284 -0.6617
vn 0.1024 0.3151 0.9435
vn 0.7002 0.2680 0.6617
vn -0.2680 0.1947 0.9435
vn -0.2680 -0.1947 0.9435
vn 0.1024 -0.3151 0.9435
vn 0.9050 0.2680 0.3304
vn 0.0247 0.9435 0.3304
vn -0.8897 0.3151 0.3304
vn -0.5746 -0.7488 0.3304
vn 0.5346 -0.7779 0.3304
vn 0.8026 0.5831 0.1256
vn -0.3066 0.9435 0.1256
vn -0.9921 -0.0000 0.1256
vn -0.3066 -0.9435 0.1256
vn 0.8026 -0.5831 0.1256
vn 0.3035 -0.9342 0.1876
vn 0.0247 -0.9435 0.3304
vn -0.7947 -0.5773 0.1876
vn -0.8897 -0.3151 0.3304
vn -0.7947 0.5773 0.1876
vn -0.5746 0.7488 0.3304
vn 0.3035 0.9342 0.1876
vn 0.5346 0.7779 0.3304
vn 0.9822 -0.0000 0.1876
vn 0.9050 -0.2680 0.3304
vn 0.4713 -0.5831 0.6617
vn 0.1876 -0.5773 0.7947
vn -0.0385 -0.7488 0.6617
vn -0.4089 -0.6284 0.6617
vn -0.4911 -0.3568 0.7947
vn -0.7240 -0.1947 0.6617
vn -0.7240 0.1947 0.6617
vn -0.4911 0.3568 0.7947
vn -0.4089 0.6284 0.6617
vn 0.7002 -0.2680 0.6617
vn 0.6071 -0.0000 0.7947
vn 0.3313 -0.0000 0.9435
vn -0.0385 0.7488 0.6617
vn 0.1876 0.5773 0.7947
vn 0.4713 0.5831 0.6617
vn -0.3035 0.9342 -0.1876
vn -0.0247 0.9435 -0.3304
vn 0.5746 0.7488 -0.3304
vn 0.7947 0.5773 -0.1876
vn 0.8897 0.3151 -0.3304
vn 0.3066 -0.9435 -0.1256
vn -0.8026 -0.5831 -0.1256
vn -0.8026 0.5831 -0.1256
vn 0.3066 0.9435 -0.1256
vn 0.9921 -0.0000 -0.1256
vt 0.590909 0.236191
vt 0.500000 0.236191
vt 0.772727 0.236191
vt 0.681818 0.236191
vt 0.045455 0.236191
vt 0.954545 0.236191
vt 0.863636 0.236191
vt 0.227273 0.236191
vt 0.136365 0.236191
vt 0.409092 0.236191
vt 0.318182 0.236191
vt 0.272728 0.472382
vt 0.090910 0.472382
vt 0.818182 0.472382
vt 0.636364 0.472382
vt 0.454546 0.472382
vt 0.363637 0.314921
vt 0.545455 0.314921
vt 0.727273 0.314921
vt 0.000000 0.314921
vt 0.909091 0.314921
vt 0.181819 0.314921
vt 0.318182 0.236191
vt 0.409092 0.236191
vt 0.136365 0.236191
vt 0.227273 0.236191
vt 0.863636 0.236191
vt 0.954545 0.236191
vt 0.045455 0.236191
vt 0.681818 0.236191
vt 0.772727 0.236191
vt 0.500000 0.236191
vt 0.590909 0.236191
vt 0.181819 0.000000
vt 0.909091 0.000000
vt 0.727273 0.000000
vt 0.545455 0.000000
vt 0.363637 0.000000
vt 0.272728 0.157461
vt 1.000000 0.157461
vt 0.090910 0.157461
vt 0.818182 0.157461
vt 0.636364 0.157461
vt 0.454546 0.157461
vt 0.954545 0.078731
vt 0.136365 0.078731
vt 0.318182 0.078731
vt 0.227273 0.078731
vt 0.181819 0.157461
vt 0.363637 0.157461
vt 0.500000 0.078731
vt 0.409092 0.078731
vt 0.772727 0.078731
vt 0.863636 0.078731
vt 0.909091 0.157461
vt 0.590909 0.078731
vt 0.681818 0.078731
vt 0.727273 0.157461
vt 0.545455 0.157461
vt 0.318182 0.236191
vt 0.409092 0.236191
vt 0.136365 0.236191
vt 0.227273 0.236191
vt 0.863636 0.236191
vt 0.954545 0.236191
vt 0.045455 0.236191
vt 0.681818 0.236191
vt 0.772727 0.236191
vt 0.500000 0.236191
vt 0.590909 0.236191
vt 0.272728 0.314921
vt 0.090910 0.314921
vt 0.818182 0.314921
vt 0.636364 0.314921
vt 0.454546 0.314921
vt 0.136365 0.393651
vt 0.227273 0.393651
vt 0.318182 0.393651
vt 0.409092 0.393651
vt 0.863636 0.393651
vt 0.045455 0.393651
vt 0.681818 0.393651
vt 0.772727 0.393651
vt 0.500000 0.393651
vt 0.590909 0.393651
s 0
f 5/5/1 54/72/1 15/20/1
f 6/7/2 15/21/2 55/73/2
f 3/3/3 6/7/3 55/73/3
f 3/3/4 55/73/4 14/19/4
f 4/4/5 14/19/5 56/74/5
f 1/1/6 4/4/6 56/74/6
f 1/1/7 56/74/7 13/18/7
f 2/2/8 13/18/8 57/75/8
f 9/10/9 2/2/9 57/75/9
f 9/10/10 57/75/10 12/17/10
f 53/71/11 12/17/11 59/78/11
f 58/77/12 53/71/12 59/78/12
f 58/77/13 59/78/13 11/12/13
f 54/72/14 16/22/14 58/76/14
f 60/81/15 54/72/15 58/76/15
f 26/33/16 2/2/16 25/32/16
f 25/32/17 9/10/17 18/24/17
f 24/31/18 4/4/18 23/30/18
f 21/27/19 5/6/19 6/7/19
f 23/30/20 1/1/20 26/33/20
f 19/25/21 7/8/21 8/9/21
f 60/81/22 58/76/22 11/13/22
f 55/73/23 15/21/23 60/80/23
f 21/27/24 3/3/24 24/31/24
f 61/83/25 55/73/25 60/80/25
f 61/83/26 60/80/26 11/14/26
f 22/29/27 8/9/27 5/5/27
f 56/74/28 14/19/28 61/82/28
f 62/85/29 56/74/29 61/82/29
f 18/24/30 10/11/30 17/23/30
f 62/85/31 61/82/31 11/15/31
f 57/75/32 13/18/32 62/84/32
f 20/26/33 10/11/33 7/8/33
f 59/79/34 57/75/34 62/84/34
f 59/79/35 62/84/35 11/16/35
f 12/17/36 57/75/36 59/79/36
f 13/18/37 56/74/37 62/85/37
f 14/19/38 55/73/38 61/83/38
f 15/20/39 54/72/39 60/81/39
f 16/22/40 53/71/40 58/77/40
f 25/32/16 52/70/16 26/33/16
f 18/24/17 51/69/17 25/32/17
f 23/30/18 50/68/18 24/31/18
f 22/28/19 47/64/19 48/65/19
f 26/33/20 49/67/20 23/30/20
f 20/26/21 45/62/21 46/63/21
f 24/31/24 47/64/24 21/27/24
f 19/25/27 48/66/27 45/62/27
f 17/23/30 44/61/30 18/24/30
f 17/23/33 46/63/33 43/60/33
f 27/34/41 34/48/41 33/46/41
f 28/39/42 34/47/42 36/50/42
f 27/35/43 33/45/43 38/54/43
f 27/36/44 38/53/44 40/57/44
f 27/37/45 40/56/45 37/51/45
f 28/39/46 36/50/46 43/60/46
f 29/41/47 35/49/47 45/62/47
f 30/42/48 39/55/48 47/64/48
f 31/43/49 41/58/49 49/67/49
f 32/44/50 42/59/50 51/69/50
f 28/39/51 43/60/51 46/63/51
f 29/41/52 45/62/52 48/66/52
f 30/42/53 47/64/53 50/68/53
f 31/43/54 49/67/54 52/70/54
f 32/44/55 51/69/55 44/61/55
f 51/69/56 42/59/56 52/70/56
f 42/59/57 31/43/57 52/70/57
f 49/67/58 41/58/58 50/68/58
f 41/58/59 30/42/59 50/68/59
f 47/64/60 39/55/60 48/65/60
f 39/55/61 29/40/61 48/65/61
f 45/62/62 35/49/62 46/63/62
f 35/49/63 28/39/63 46/63/63
f 43/60/64 36/50/64 44/61/64
f 36/50/65 32/44/65 44/61/65
f 37/51/66 42/59/66 32/44/66
f 37/51/67 40/56/67 42/59/67
f 40/56/68 31/43/68 42/59/68
f 40/57/69 41/58/69 31/43/69
f 40/57/70 38/53/70 41/58/70
f 38/53/71 30/42/71 41/58/71
f 38/54/72 39/55/72 30/42/72
f 38/54/73 33/45/73 39/55/73
f 33/45/74 29/40/74 39/55/74
f 36/50/75 37/52/75 32/44/75
f 36/50/76 34/47/76 37/52/76
f 34/47/77 27/38/77 37/52/77
f 33/46/78 35/49/78 29/41/78
f 33/46/79 34/48/79 35/49/79
f 34/48/80 28/39/80 35/49/80
f 5/5/81 8/9/81 54/72/81
f 8/9/82 16/22/82 54/72/82
f 7/8/83 53/71/83 16/22/83
f 7/8/84 10/11/84 53/71/84
f 10/11/85 12/17/85 53/71/85
f 2/2/86 1/1/86 13/18/86
f 4/4/87 3/3/87 14/19/87
f 6/7/88 5/6/88 15/21/88
f 8/9/89 7/8/89 16/22/89
f 10/11/90 9/10/90 12/17/90
f 26/33/16 1/1/16 2/2/16
f 25/32/17 2/2/17 9/10/17
f 24/31/18 3/3/18 4/4/18
f 21/27/19 22/28/19 5/6/19
f 23/30/20 4/4/20 1/1/20
f 19/25/21 20/26/21 7/8/21
f 21/27/24 6/7/24 3/3/24
f 22/29/27 19/25/27 8/9/27
f 18/24/30 9/10/30 10/11/30
f 20/26/33 17/23/33 10/11/33
f 25/32/16 51/69/16 52/70/16
f 18/24/17 44/61/17 51/69/17
f 23/30/18 49/67/18 50/68/18
f 22/28/19 21/27/19 47/64/19
f 26/33/20 52/70/20 49/67/20
f 20/26/21 19/25/21 45/62/21
f 24/31/24 50/68/24 47/64/24
f 19/25/27 22/29/27 48/66/27
f 17/23/30 43/60/30 44/61/30
f 17/23/33 20/26/33 46/63/33
